<?xml version="1.0" encoding="UTF-8"?>
<svg width="103px" height="84px" viewBox="0 0 103 84" version="1.1" xmlns="http://www.w3.org/2000/svg" xmlns:xlink="http://www.w3.org/1999/xlink">
    <!-- Generator: Sketch 52.2 (67145) - http://www.bohemiancoding.com/sketch -->
    <title>Icon</title>
    <desc>Created with Sketch.</desc>
    <g id="Page-1" stroke="none" stroke-width="1" fill="none" fill-rule="evenodd">
        <g id="07-Order-Confirmed" transform="translate(-136.000000, -182.000000)">
            <g id="Icon" transform="translate(136.000000, 171.000000)">
                <path d="M82,29.25 C93.9167262,17.24994 99.9166663,11.25 100,11.25 C100.083334,11.25 100.583329,11.7083287 101.5,12.625 L102.75,14 L64,52.75 L41.25,30 L44,27.25 L64,47.125 L82,29.25 Z" id="" fill="#1DBE31"></path>
                <path d="M0,37 L32,37 L32,47 L49.375,47 L55.625,63.5 L64,67.75 L64,87 L53.75,87 L53.625,87.75 C53.4583325,88.2500025 53.1875019,88.8958294 52.8125,89.6875 C52.4374981,90.4791706 51.8333375,91.2499963 51,92 C50.4999975,92.5000025 50.1041681,92.8541656 49.8125,93.0625 C49.5208319,93.2708344 49.0833363,93.541665 48.5,93.875 C45.499985,95.3750075 42.500015,95.3750075 39.5,93.875 C38.9166637,93.541665 38.4791681,93.2708344 38.1875,93.0625 C37.8958319,92.8541656 37.5000025,92.5000025 37,92 C36.1666625,91.2499963 35.5625019,90.4791706 35.1875,89.6875 C34.8124981,88.8958294 34.5416675,88.2500025 34.375,87.75 L34.25,87 L28,87 L28,41 L0,41 L0,37 Z M4,47 L24,47 L24,51 L4,51 L4,47 Z M48,54.625 L46.625,51 L32,51 L32,83 L34.25,83 L34.375,82.25 C34.5416675,81.7499975 34.8124981,81.1250038 35.1875,80.375 C35.5625019,79.6249962 36.1249963,78.8541706 36.875,78.0625 C37.6250037,77.2708294 38.3749962,76.708335 39.125,76.375 C40.791675,75.4583287 42.4166587,75 44,75 C45.5833413,75 47.2499913,75.4583287 49,76.375 C49.66667,76.708335 50.3749962,77.2708294 51.125,78.0625 C51.8750038,78.8541706 52.4374981,79.6249962 52.8125,80.375 C53.1875019,81.1250038 53.4583325,81.7499975 53.625,82.25 L53.75,83 L60,83 L60,70.125 L52.375,66.375 L50.875,62.375 C49.9583287,59.7916537 49.000005,57.2083462 48,54.625 Z M36,55 L40,55 L40,63 L48,63 L48,67 L36,67 L36,55 Z M8,57 L24,57 L24,61 L8,61 L8,57 Z M12,67 L24,67 L24,71 L12,71 L12,67 Z M45.5,79.25 C44.499995,78.916665 43.4791719,78.8958319 42.4375,79.1875 C41.3958281,79.4791681 40.5000038,80.0208294 39.75,80.8125 C38.9999963,81.6041706 38.4791681,82.499995 38.1875,83.5 C37.8958319,84.500005 37.8958319,85.5208281 38.1875,86.5625 C38.4791681,87.6041719 39.0416625,88.4999963 39.875,89.25 C40.9583387,90.4166725 42.333325,91 44,91 C45.666675,91 47.0416613,90.4166725 48.125,89.25 C48.9583375,88.4999963 49.5208319,87.6041719 49.8125,86.5625 C50.1041681,85.5208281 50.1041681,84.500005 49.8125,83.5 C49.5208319,82.499995 48.9791706,81.6041706 48.1875,80.8125 C47.3958294,80.0208294 46.500005,79.5000012 45.5,79.25 Z" id="" fill="#2C2C2C"></path>
            </g>
        </g>
    </g>
</svg>